<?xml version="1.0" encoding="UTF-8"?>
<svg id="Layer_1" data-name="Layer 1" xmlns="http://www.w3.org/2000/svg" viewBox="0 0 4072 1024">
  <defs>
    <style>
      .cls-1 {
        fill: #fff;
      }
    </style>
  </defs>
  <g>
    <path class="cls-1" d="M593.15,859.69c-46.88,0-90.72-8.82-131.53-26.48-40.8-17.65-76.4-42.24-106.78-73.79-30.39-31.54-54.12-68.44-71.19-110.69-17.08-42.24-25.61-87.97-25.61-137.17s8.53-93.9,25.61-135.87c17.06-41.96,40.8-78.7,71.19-110.26,30.39-31.54,65.83-56.28,106.35-74.23,40.5-17.93,84.5-26.91,131.96-26.91,44.56,0,82.91,5.79,115.03,17.36,32.12,11.58,64.38,30.68,96.8,57.3,4.63,3.47,8.25,7.09,10.85,10.85,2.6,3.77,4.34,7.53,5.21,11.29,.87,3.77,1.3,8.25,1.3,13.46,0,11-3.91,20.12-11.72,27.35-7.81,7.24-17.23,11.29-28.21,12.15-11,.87-21.7-2.74-32.12-10.85-21.42-18.52-43.56-32.69-66.41-42.54-22.87-9.83-53.11-14.76-90.72-14.76-34.16,0-66.28,6.95-96.37,20.84-30.1,13.89-56.58,32.99-79.44,57.3-22.87,24.31-40.67,52.52-53.39,84.65-12.74,32.12-19.1,66.41-19.1,102.88s6.36,71.62,19.1,103.75c12.72,32.12,30.52,60.34,53.39,84.65,22.86,24.31,49.34,43.27,79.44,56.86,30.09,13.61,62.21,20.4,96.37,20.4,29.52,0,57.43-5.06,83.78-15.19,26.33-10.12,51.66-24.16,75.96-42.11,10.42-7.52,20.69-10.85,30.82-9.98,10.12,.87,18.67,4.92,25.61,12.15,6.95,7.24,10.42,17.23,10.42,29.95,0,5.79-1.17,11.44-3.47,16.93-2.32,5.51-5.79,10.57-10.42,15.19-31.25,24.89-64.68,43.71-100.27,56.43-35.59,12.72-73.07,19.1-112.43,19.1Z"/>
    <path class="cls-1" d="M1118.39,854.49c-42.25,0-80.17-10.55-113.73-31.69-33.57-21.12-60.05-49.77-79.44-85.95-19.4-36.16-29.08-77.12-29.08-122.84s10.55-86.82,31.69-123.28c21.12-36.46,49.77-65.25,85.95-86.38,36.16-21.12,76.83-31.69,121.98-31.69s85.65,10.57,121.54,31.69c35.88,21.13,64.38,49.92,85.51,86.38,21.12,36.46,31.69,77.56,31.69,123.28h-33.86c0,45.73-9.7,86.68-29.08,122.84-19.4,36.18-45.88,64.83-79.44,85.95-33.57,21.13-71.49,31.69-113.73,31.69Zm17.36-78.13c29.52,0,55.85-7.08,79-21.27,23.14-14.18,41.37-33.56,54.69-58.17,13.31-24.59,19.97-52.23,19.97-82.91s-6.66-59.17-19.97-83.78c-13.32-24.59-31.55-43.98-54.69-58.17-23.16-14.18-49.49-21.27-79-21.27s-55.13,7.09-78.57,21.27c-23.44,14.19-41.97,33.57-55.56,58.17-13.61,24.61-20.4,52.52-20.4,83.78s6.8,58.32,20.4,82.91c13.59,24.61,32.12,43.99,55.56,58.17,23.44,14.19,49.62,21.27,78.57,21.27Zm194.47,75.53c-12.74,0-23.3-4.19-31.69-12.59-8.4-8.38-12.59-18.95-12.59-31.69v-132.83l16.5-92.02,72.06,31.25v193.6c0,12.74-4.21,23.3-12.59,31.69-8.4,8.4-18.96,12.59-31.69,12.59Z"/>
    <path class="cls-1" d="M1679.21,854.49c-40.52,0-78-6.21-112.43-18.67-34.44-12.44-61.21-28.22-80.3-47.31-8.68-9.25-12.3-19.82-10.85-31.69,1.44-11.86,7.08-21.56,16.93-29.08,11.57-9.25,23.01-13.16,34.29-11.72,11.29,1.45,20.97,6.51,29.08,15.19,9.83,11,25.61,21.27,47.31,30.82s45.86,14.32,72.49,14.32c33.56,0,59.17-5.49,76.83-16.49,17.65-10.99,26.76-25.18,27.35-42.54,.57-17.36-7.68-32.41-24.74-45.14-17.08-12.72-48.18-23.14-93.33-31.25-58.47-11.57-100.86-28.93-127.19-52.09-26.34-23.14-39.5-51.51-39.5-85.08,0-29.52,8.68-53.96,26.04-73.36,17.36-19.38,39.64-33.86,66.85-43.41,27.2-9.55,55.56-14.32,85.08-14.32,38.2,0,72.06,6.08,101.57,18.23s52.96,28.95,70.32,50.35c8.1,9.26,11.86,18.96,11.29,29.08-.58,10.13-5.51,18.67-14.76,25.61-9.26,6.38-20.27,8.4-32.99,6.08-12.74-2.31-23.44-7.51-32.12-15.63-14.47-13.89-30.1-23.44-46.88-28.65-16.79-5.21-36.18-7.81-58.17-7.81-25.48,0-47.03,4.34-64.68,13.02-17.66,8.68-26.48,21.42-26.48,38.2,0,10.42,2.74,19.83,8.25,28.22,5.49,8.4,16.35,15.93,32.56,22.57,16.2,6.66,39.94,13.17,71.19,19.53,43.41,8.68,77.7,19.68,102.88,32.99,25.18,13.32,43.26,28.8,54.26,46.45,10.99,17.66,16.5,38.06,16.5,61.21,0,26.63-7.09,50.65-21.27,72.06-14.19,21.42-35.02,38.5-62.51,51.22-27.5,12.74-61.79,19.1-102.88,19.1Z"/>
    <path class="cls-1" d="M1957.89,468.15c-12.15,0-22-3.47-29.52-10.42-7.53-6.95-11.29-15.63-11.29-26.04,0-11.57,3.76-20.84,11.29-27.78,7.52-6.95,17.36-10.42,29.52-10.42h200.54c12.15,0,21.99,3.47,29.52,10.42,7.52,6.95,11.29,16.21,11.29,27.78,0,10.42-3.77,19.1-11.29,26.04-7.53,6.95-17.36,10.42-29.52,10.42h-200.54Zm192.73,382.86c-28.95,0-54.99-7.38-78.13-22.14-23.16-14.76-41.39-34.86-54.69-60.34-13.32-25.46-19.97-54.11-19.97-85.95V268.48c0-12.72,4.04-23.14,12.15-31.25,8.1-8.1,18.52-12.15,31.25-12.15s23.14,4.06,31.25,12.15c8.1,8.11,12.15,18.53,12.15,31.25v414.11c0,23.16,6.36,42.54,19.1,58.17,12.72,15.63,28.35,23.44,46.88,23.44h29.52c10.42,0,19.24,4.06,26.48,12.15,7.23,8.11,10.85,18.53,10.85,31.25s-4.77,23.16-14.32,31.25c-9.55,8.11-21.85,12.15-36.9,12.15h-15.63Z"/>
    <path class="cls-1" d="M2549.09,854.49c-48.05,0-90.72-10.27-128.05-30.82-37.33-20.54-66.56-48.9-87.68-85.08-21.13-36.16-31.69-77.7-31.69-124.58s9.98-89.27,29.95-125.45c19.97-36.16,47.6-64.53,82.91-85.08,35.3-20.54,75.81-30.82,121.54-30.82s83.91,9.98,116.33,29.95c32.41,19.97,57.15,47.46,74.23,82.48,17.07,35.02,25.61,75.39,25.61,121.11,0,11-3.77,20.12-11.29,27.35-7.53,7.24-17.08,10.85-28.65,10.85h-349.87v-69.45h347.26l-35.59,24.31c-.58-28.93-6.38-54.83-17.36-77.7-11-22.86-26.63-40.94-46.88-54.26-20.27-13.31-44.86-19.97-73.79-19.97-32.99,0-61.21,7.24-84.65,21.7-23.44,14.47-41.24,34.29-53.39,59.47s-18.23,53.69-18.23,85.51,7.23,60.2,21.7,85.08c14.46,24.89,34.43,44.57,59.9,59.04,25.46,14.47,54.69,21.7,87.68,21.7,17.93,0,36.31-3.32,55.13-9.98,18.8-6.65,33.99-14.32,45.58-23.01,8.68-6.36,18.08-9.69,28.21-9.98,10.12-.29,18.95,2.75,26.48,9.12,9.83,8.68,15.04,18.23,15.63,28.65,.57,10.42-4.06,19.4-13.89,26.91-19.68,15.63-44.14,28.36-73.36,38.2-29.23,9.85-57.16,14.76-83.78,14.76Z"/>
    <path class="cls-1" d="M2977.95,851.01c-25.47,0-48.05-6.95-67.72-20.84-19.68-13.89-35.02-32.84-46.01-56.86-11-24.01-16.49-51.66-16.49-82.91V216.39c0-12.72,4.04-23.14,12.15-31.25,8.1-8.1,18.52-12.15,31.25-12.15s23.14,4.06,31.25,12.15c8.1,8.11,12.15,18.53,12.15,31.25v474.02c0,21.42,4.04,39.07,12.15,52.96,8.1,13.89,18.52,20.84,31.25,20.84h21.7c11.57,0,20.97,4.06,28.21,12.15,7.23,8.11,10.85,18.53,10.85,31.25s-5.51,23.16-16.5,31.25c-11,8.11-25.18,12.15-42.54,12.15h-1.74Z"/>
    <path class="cls-1" d="M3238.39,851.01c-25.48,0-48.05-6.95-67.72-20.84-19.68-13.89-35.03-32.84-46.01-56.86-11-24.01-16.5-51.66-16.5-82.91V216.39c0-12.72,4.04-23.14,12.15-31.25,8.1-8.1,18.52-12.15,31.25-12.15s23.14,4.06,31.25,12.15c8.1,8.11,12.15,18.53,12.15,31.25v474.02c0,21.42,4.04,39.07,12.15,52.96,8.1,13.89,18.52,20.84,31.25,20.84h21.7c11.57,0,20.97,4.06,28.21,12.15,7.23,8.11,10.85,18.53,10.85,31.25s-5.51,23.16-16.5,31.25c-11,8.11-25.18,12.15-42.54,12.15h-1.74Z"/>
    <path class="cls-1" d="M3557.86,854.49c-42.25,0-80.17-10.55-113.73-31.69-33.57-21.12-60.05-49.77-79.44-85.95-19.4-36.16-29.08-77.12-29.08-122.84s10.55-86.82,31.69-123.28c21.12-36.46,49.77-65.25,85.95-86.38,36.16-21.12,76.83-31.69,121.98-31.69s85.65,10.57,121.54,31.69c35.88,21.13,64.38,49.92,85.51,86.38,21.12,36.46,31.69,77.56,31.69,123.28h-33.86c0,45.73-9.7,86.68-29.08,122.84-19.4,36.18-45.88,64.83-79.44,85.95-33.57,21.13-71.49,31.69-113.73,31.69Zm17.36-78.13c29.52,0,55.85-7.08,79-21.27,23.14-14.18,41.37-33.56,54.69-58.17,13.31-24.59,19.97-52.23,19.97-82.91s-6.66-59.17-19.97-83.78c-13.32-24.59-31.55-43.98-54.69-58.17-23.16-14.18-49.49-21.27-79-21.27s-55.13,7.09-78.57,21.27c-23.44,14.19-41.97,33.57-55.56,58.17-13.61,24.61-20.4,52.52-20.4,83.78s6.8,58.32,20.4,82.91c13.59,24.61,32.12,43.99,55.56,58.17,23.44,14.19,49.62,21.27,78.57,21.27Zm194.47,75.53c-12.74,0-23.3-4.19-31.69-12.59-8.4-8.38-12.59-18.95-12.59-31.69v-132.83l16.5-92.02,72.06,31.25v193.6c0,12.74-4.21,23.3-12.59,31.69-8.4,8.4-18.96,12.59-31.69,12.59Z"/>
  </g>
  <g>
    <path class="cls-1" d="M593.15,859.69c-46.88,0-90.72-8.82-131.53-26.48-40.8-17.65-76.4-42.24-106.78-73.79-30.39-31.54-54.12-68.44-71.19-110.69-17.08-42.24-25.61-87.97-25.61-137.17s8.53-93.9,25.61-135.87c17.06-41.96,40.8-78.7,71.19-110.26,30.39-31.54,65.83-56.28,106.35-74.23,40.5-17.93,84.5-26.91,131.96-26.91,44.56,0,82.91,5.79,115.03,17.36,32.12,11.58,64.38,30.68,96.8,57.3,4.63,3.47,8.25,7.09,10.85,10.85,2.6,3.77,4.34,7.53,5.21,11.29,.87,3.77,1.3,8.25,1.3,13.46,0,11-3.91,20.12-11.72,27.35-7.81,7.24-17.23,11.29-28.21,12.15-11,.87-21.7-2.74-32.12-10.85-21.42-18.52-43.56-32.69-66.41-42.54-22.87-9.83-53.11-14.76-90.72-14.76-34.16,0-66.28,6.95-96.37,20.84-30.1,13.89-56.58,32.99-79.44,57.3-22.87,24.31-40.67,52.52-53.39,84.65-12.74,32.12-19.1,66.41-19.1,102.88s6.36,71.62,19.1,103.75c12.72,32.12,30.52,60.34,53.39,84.65,22.86,24.31,49.34,43.27,79.44,56.86,30.09,13.61,62.21,20.4,96.37,20.4,29.52,0,57.43-5.06,83.78-15.19,26.33-10.12,51.66-24.16,75.96-42.11,10.42-7.52,20.69-10.85,30.82-9.98,10.12,.87,18.67,4.92,25.61,12.15,6.95,7.24,10.42,17.23,10.42,29.95,0,5.79-1.17,11.44-3.47,16.93-2.32,5.51-5.79,10.57-10.42,15.19-31.25,24.89-64.68,43.71-100.27,56.43-35.59,12.72-73.07,19.1-112.43,19.1Z"/>
    <path class="cls-1" d="M1118.39,854.49c-42.25,0-80.17-10.55-113.73-31.69-33.57-21.12-60.05-49.77-79.44-85.95-19.4-36.16-29.08-77.12-29.08-122.84s10.55-86.82,31.69-123.28c21.12-36.46,49.77-65.25,85.95-86.38,36.16-21.12,76.83-31.69,121.98-31.69s85.65,10.57,121.54,31.69c35.88,21.13,64.38,49.92,85.51,86.38,21.12,36.46,31.69,77.56,31.69,123.28h-33.86c0,45.73-9.7,86.68-29.08,122.84-19.4,36.18-45.88,64.83-79.44,85.95-33.57,21.13-71.49,31.69-113.73,31.69Zm17.36-78.13c29.52,0,55.85-7.08,79-21.27,23.14-14.18,41.37-33.56,54.69-58.17,13.31-24.59,19.97-52.23,19.97-82.91s-6.66-59.17-19.97-83.78c-13.32-24.59-31.55-43.98-54.69-58.17-23.16-14.18-49.49-21.27-79-21.27s-55.13,7.09-78.57,21.27c-23.44,14.19-41.97,33.57-55.56,58.17-13.61,24.61-20.4,52.52-20.4,83.78s6.8,58.32,20.4,82.91c13.59,24.61,32.12,43.99,55.56,58.17,23.44,14.19,49.62,21.27,78.57,21.27Zm194.47,75.53c-12.74,0-23.3-4.19-31.69-12.59-8.4-8.38-12.59-18.95-12.59-31.69v-132.83l16.5-92.02,72.06,31.25v193.6c0,12.74-4.21,23.3-12.59,31.69-8.4,8.4-18.96,12.59-31.69,12.59Z"/>
    <path class="cls-1" d="M1679.21,854.49c-40.52,0-78-6.21-112.43-18.67-34.44-12.44-61.21-28.22-80.3-47.31-8.68-9.25-12.3-19.82-10.85-31.69,1.44-11.86,7.08-21.56,16.93-29.08,11.57-9.25,23.01-13.16,34.29-11.72,11.29,1.45,20.97,6.51,29.08,15.19,9.83,11,25.61,21.27,47.31,30.82s45.86,14.32,72.49,14.32c33.56,0,59.17-5.49,76.83-16.49,17.65-10.99,26.76-25.18,27.35-42.54,.57-17.36-7.68-32.41-24.74-45.14-17.08-12.72-48.18-23.14-93.33-31.25-58.47-11.57-100.86-28.93-127.19-52.09-26.34-23.14-39.5-51.51-39.5-85.08,0-29.52,8.68-53.96,26.04-73.36,17.36-19.38,39.64-33.86,66.85-43.41,27.2-9.55,55.56-14.32,85.08-14.32,38.2,0,72.06,6.08,101.57,18.23s52.96,28.95,70.32,50.35c8.1,9.26,11.86,18.96,11.29,29.08-.58,10.13-5.51,18.67-14.76,25.61-9.26,6.38-20.27,8.4-32.99,6.08-12.74-2.31-23.44-7.51-32.12-15.63-14.47-13.89-30.1-23.44-46.88-28.65-16.79-5.21-36.18-7.81-58.17-7.81-25.48,0-47.03,4.34-64.68,13.02-17.66,8.68-26.48,21.42-26.48,38.2,0,10.42,2.74,19.83,8.25,28.22,5.49,8.4,16.35,15.93,32.56,22.57,16.2,6.66,39.94,13.17,71.19,19.53,43.41,8.68,77.7,19.68,102.88,32.99,25.18,13.32,43.26,28.8,54.26,46.45,10.99,17.66,16.5,38.06,16.5,61.21,0,26.63-7.09,50.65-21.27,72.06-14.19,21.42-35.02,38.5-62.51,51.22-27.5,12.74-61.79,19.1-102.88,19.1Z"/>
    <path class="cls-1" d="M1957.89,468.15c-12.15,0-22-3.47-29.52-10.42-7.53-6.95-11.29-15.63-11.29-26.04,0-11.57,3.76-20.84,11.29-27.78,7.52-6.95,17.36-10.42,29.52-10.42h200.54c12.15,0,21.99,3.47,29.52,10.42,7.52,6.95,11.29,16.21,11.29,27.78,0,10.42-3.77,19.1-11.29,26.04-7.53,6.95-17.36,10.42-29.52,10.42h-200.54Zm192.73,382.86c-28.95,0-54.99-7.38-78.13-22.14-23.16-14.76-41.39-34.86-54.69-60.34-13.32-25.46-19.97-54.11-19.97-85.95V268.48c0-12.72,4.04-23.14,12.15-31.25,8.1-8.1,18.52-12.15,31.25-12.15s23.14,4.06,31.25,12.15c8.1,8.11,12.15,18.53,12.15,31.25v414.11c0,23.16,6.36,42.54,19.1,58.17,12.72,15.63,28.35,23.44,46.88,23.44h29.52c10.42,0,19.24,4.06,26.48,12.15,7.23,8.11,10.85,18.53,10.85,31.25s-4.77,23.16-14.32,31.25c-9.55,8.11-21.85,12.15-36.9,12.15h-15.63Z"/>
    <path class="cls-1" d="M2549.09,854.49c-48.05,0-90.72-10.27-128.05-30.82-37.33-20.54-66.56-48.9-87.68-85.08-21.13-36.16-31.69-77.7-31.69-124.58s9.98-89.27,29.95-125.45c19.97-36.16,47.6-64.53,82.91-85.08,35.3-20.54,75.81-30.82,121.54-30.82s83.91,9.98,116.33,29.95c32.41,19.97,57.15,47.46,74.23,82.48,17.07,35.02,25.61,75.39,25.61,121.11,0,11-3.77,20.12-11.29,27.35-7.53,7.24-17.08,10.85-28.65,10.85h-349.87v-69.45h347.26l-35.59,24.31c-.58-28.93-6.38-54.83-17.36-77.7-11-22.86-26.63-40.94-46.88-54.26-20.27-13.31-44.86-19.97-73.79-19.97-32.99,0-61.21,7.24-84.65,21.7-23.44,14.47-41.24,34.29-53.39,59.47s-18.23,53.69-18.23,85.51,7.23,60.2,21.7,85.08c14.46,24.89,34.43,44.57,59.9,59.04,25.46,14.47,54.69,21.7,87.68,21.7,17.93,0,36.31-3.32,55.13-9.98,18.8-6.65,33.99-14.32,45.58-23.01,8.68-6.36,18.08-9.69,28.21-9.98,10.12-.29,18.95,2.75,26.48,9.12,9.83,8.68,15.04,18.23,15.63,28.65,.57,10.42-4.06,19.4-13.89,26.91-19.68,15.63-44.14,28.36-73.36,38.2-29.23,9.85-57.16,14.76-83.78,14.76Z"/>
    <path class="cls-1" d="M2977.95,851.01c-25.47,0-48.05-6.95-67.72-20.84-19.68-13.89-35.02-32.84-46.01-56.86-11-24.01-16.49-51.66-16.49-82.91V216.39c0-12.72,4.04-23.14,12.15-31.25,8.1-8.1,18.52-12.15,31.25-12.15s23.14,4.06,31.25,12.15c8.1,8.11,12.15,18.53,12.15,31.25v474.02c0,21.42,4.04,39.07,12.15,52.96,8.1,13.89,18.52,20.84,31.25,20.84h21.7c11.57,0,20.97,4.06,28.21,12.15,7.23,8.11,10.85,18.53,10.85,31.25s-5.51,23.16-16.5,31.25c-11,8.11-25.18,12.15-42.54,12.15h-1.74Z"/>
    <path class="cls-1" d="M3238.39,851.01c-25.48,0-48.05-6.95-67.72-20.84-19.68-13.89-35.03-32.84-46.01-56.86-11-24.01-16.5-51.66-16.5-82.91V216.39c0-12.72,4.04-23.14,12.15-31.25,8.1-8.1,18.52-12.15,31.25-12.15s23.14,4.06,31.25,12.15c8.1,8.11,12.15,18.53,12.15,31.25v474.02c0,21.42,4.04,39.07,12.15,52.96,8.1,13.89,18.52,20.84,31.25,20.84h21.7c11.57,0,20.97,4.06,28.21,12.15,7.23,8.11,10.85,18.53,10.85,31.25s-5.51,23.16-16.5,31.25c-11,8.11-25.18,12.15-42.54,12.15h-1.74Z"/>
    <path class="cls-1" d="M3557.86,854.49c-42.25,0-80.17-10.55-113.73-31.69-33.57-21.12-60.05-49.77-79.44-85.95-19.4-36.16-29.08-77.12-29.08-122.84s10.55-86.82,31.69-123.28c21.12-36.46,49.77-65.25,85.95-86.38,36.16-21.12,76.83-31.69,121.98-31.69s85.65,10.57,121.54,31.69c35.88,21.13,64.38,49.92,85.51,86.38,21.12,36.46,31.69,77.56,31.69,123.28h-33.86c0,45.73-9.7,86.68-29.08,122.84-19.4,36.18-45.88,64.83-79.44,85.95-33.57,21.13-71.49,31.69-113.73,31.69Zm17.36-78.13c29.52,0,55.85-7.08,79-21.27,23.14-14.18,41.37-33.56,54.69-58.17,13.31-24.59,19.97-52.23,19.97-82.91s-6.66-59.17-19.97-83.78c-13.32-24.59-31.55-43.98-54.69-58.17-23.16-14.18-49.49-21.27-79-21.27s-55.13,7.09-78.57,21.27c-23.44,14.19-41.97,33.57-55.56,58.17-13.61,24.61-20.4,52.52-20.4,83.78s6.8,58.32,20.4,82.91c13.59,24.61,32.12,43.99,55.56,58.17,23.44,14.19,49.62,21.27,78.57,21.27Zm194.47,75.53c-12.74,0-23.3-4.19-31.69-12.59-8.4-8.38-12.59-18.95-12.59-31.69v-132.83l16.5-92.02,72.06,31.25v193.6c0,12.74-4.21,23.3-12.59,31.69-8.4,8.4-18.96,12.59-31.69,12.59Z"/>
  </g>
</svg>
